<svg width="56" height="50" viewBox="0 0 56 50" fill="none" xmlns="http://www.w3.org/2000/svg">
<g clip-path="url(#clip0_615_1200)">
<path d="M4.62778 29.2055L22.1958 45.6068C22.925 46.2874 23.8875 46.6666 24.8889 46.6666C25.8903 46.6666 26.8528 46.2874 27.5819 45.6068L27.8347 45.3735C25.9778 42.6416 24.8889 39.336 24.8889 35.7777C24.8889 26.3277 32.55 18.6666 42 18.6666C44.7514 18.6666 47.3472 19.318 49.6514 20.4652C49.7389 19.8332 49.7778 19.2013 49.7778 18.5596V17.9957C49.7778 11.1999 44.8681 5.40545 38.1694 4.2874C33.7361 3.54851 29.225 4.99712 26.0556 8.16656L24.8889 9.33323L23.7222 8.16656C20.5528 4.99712 16.0417 3.54851 11.6083 4.2874C4.90972 5.40545 0 11.1999 0 17.9957V18.5596C0 22.5943 1.67222 26.4541 4.62778 29.2055ZM56 35.7777C56 28.0485 49.7292 21.7777 42 21.7777C34.2708 21.7777 28 28.0485 28 35.7777C28 43.5068 34.2708 49.7777 42 49.7777C49.7292 49.7777 56 43.5068 56 35.7777ZM48.5431 31.568C49.1458 32.1707 49.1458 33.1624 48.5431 33.7652L41.5431 40.7652C40.9403 41.368 39.9486 41.368 39.3458 40.7652L35.4569 36.8763C34.8542 36.2735 34.8542 35.2818 35.4569 34.6791C36.0597 34.0763 37.0514 34.0763 37.6542 34.6791L40.4444 37.4693L46.3458 31.568C46.9486 30.9652 47.9403 30.9652 48.5431 31.568Z" fill="white"/>
</g>
<defs>
<clipPath id="clip0_615_1200">
<rect width="56" height="49.7778" fill="white"/>
</clipPath>
</defs>
</svg>
