<svg width="42" height="52" viewBox="0 0 42 52" fill="none" xmlns="http://www.w3.org/2000/svg">
<rect x="7" width="34.3023" height="46.0938" rx="5" fill="#343A49"/>
<rect x="10.752" y="5.35986" width="19.831" height="24.1188" rx="5" fill="white"/>
<rect x="11" y="34" width="20" height="8" rx="4" fill="white"/>
<circle cx="35.9424" cy="9.64747" r="1.60792" fill="white"/>
<circle cx="35.9424" cy="27.3345" r="1.60792" fill="white"/>
<circle cx="35.9424" cy="21.439" r="1.60792" fill="white"/>
<circle cx="35.9424" cy="15.5435" r="1.60792" fill="white"/>
<circle cx="12.5" cy="39.5" r="12" fill="white" stroke="#343A49"/>
<g clip-path="url(#clip0_644_1696)">
<path d="M13.7421 31.6194C13.7421 30.8679 13.1176 30.2607 12.3446 30.2607C11.5716 30.2607 10.9471 30.8679 10.9471 31.6194V37.7336H4.65826C3.88526 37.7336 3.26074 38.3407 3.26074 39.0923C3.26074 39.8438 3.88526 40.451 4.65826 40.451H10.9471V46.5651C10.9471 47.3166 11.5716 47.9238 12.3446 47.9238C13.1176 47.9238 13.7421 47.3166 13.7421 46.5651V40.451H20.0309C20.8039 40.451 21.4284 39.8438 21.4284 39.0923C21.4284 38.3407 20.8039 37.7336 20.0309 37.7336H13.7421V31.6194Z" fill="#343A49"/>
</g>
<defs>
<clipPath id="clip0_644_1696">
<rect width="19.5652" height="21.7391" fill="white" transform="translate(2.17383 28.0869)"/>
</clipPath>
</defs>
</svg>
