<svg width="32" height="25" viewBox="0 0 32 25" fill="none" xmlns="http://www.w3.org/2000/svg">
<path d="M3.55556 0C1.59444 0 0 1.59444 0 3.55556V21.3333C0 23.2944 1.59444 24.8889 3.55556 24.8889H28.4444C30.4056 24.8889 32 23.2944 32 21.3333V3.55556C32 1.59444 30.4056 0 28.4444 0H3.55556ZM12.75 7.85L16.75 15.85C17.0778 16.5111 16.8111 17.3111 16.1556 17.6389C15.5 17.9667 14.6944 17.7 14.3667 17.0444L14.0667 16.4444H9.04445L8.74444 17.0389C8.41667 17.7 7.61667 17.9667 6.95556 17.6333C6.29444 17.3 6.02778 16.5056 6.36111 15.8444L10.3611 7.84444C10.5889 7.39444 11.05 7.10556 11.5556 7.10556C12.0611 7.10556 12.5222 7.38889 12.75 7.84444V7.85ZM11.5556 11.4278L10.3778 13.7778H12.7278L11.5556 11.4278ZM21.7778 12.4444C21.4242 12.4444 21.085 12.5849 20.835 12.835C20.5849 13.085 20.4444 13.4242 20.4444 13.7778C20.4444 14.1314 20.5849 14.4705 20.835 14.7206C21.085 14.9706 21.4242 15.1111 21.7778 15.1111C22.1314 15.1111 22.4705 14.9706 22.7206 14.7206C22.9706 14.4705 23.1111 14.1314 23.1111 13.7778C23.1111 13.4242 22.9706 13.085 22.7206 12.835C22.4705 12.5849 22.1314 12.4444 21.7778 12.4444ZM23.1111 10.0056V8.44444C23.1111 7.70556 23.7056 7.11111 24.4444 7.11111C25.1833 7.11111 25.7778 7.70556 25.7778 8.44444V13.7778V16.4444C25.7778 17.1833 25.1833 17.7778 24.4444 17.7778C24.0778 17.7778 23.7444 17.6278 23.5 17.3889C22.9778 17.6389 22.3944 17.7778 21.7778 17.7778C19.5667 17.7778 17.7778 15.9889 17.7778 13.7778C17.7778 11.5667 19.5667 9.77778 21.7778 9.77778C22.2444 9.77778 22.6944 9.85556 23.1111 10.0056Z" fill="#343A49"/>
</svg>
