<svg width="32" height="32" viewBox="0 0 32 32" fill="none" xmlns="http://www.w3.org/2000/svg">
<g clip-path="url(#clip0_638_1171)">
<path d="M22.6683 1.17188L19.6433 4.19687L27.7683 12.3219L30.7933 9.29688C32.3558 7.73438 32.3558 5.20312 30.7933 3.64062L28.3308 1.17188C26.7683 -0.390625 24.2371 -0.390625 22.6746 1.17188H22.6683ZM18.2308 5.60938L3.66207 20.1844C3.01207 20.8344 2.53707 21.6406 2.27457 22.5219L0.0620668 30.0406C-0.0941832 30.5719 0.0495668 31.1406 0.437067 31.5281C0.824567 31.9156 1.39332 32.0594 1.91832 31.9094L9.43707 29.6969C10.3183 29.4344 11.1246 28.9594 11.7746 28.3094L26.3558 13.7344L18.2308 5.60938Z" fill="#343A49"/>
</g>
<defs>
<clipPath id="clip0_638_1171">
<rect width="32" height="32" fill="white"/>
</clipPath>
</defs>
</svg>
