<svg width="36" height="36" viewBox="0 0 36 36" fill="none" xmlns="http://www.w3.org/2000/svg">
<path d="M10.8643 1.24453L10.2857 2.25H2.57143C1.14911 2.25 0 3.25547 0 4.5C0 5.74453 1.14911 6.75 2.57143 6.75H33.4286C34.8509 6.75 36 5.74453 36 4.5C36 3.25547 34.8509 2.25 33.4286 2.25H25.7143L25.1357 1.24453C24.7018 0.478125 23.8098 0 22.8375 0H13.1625C12.1902 0 11.2982 0.478125 10.8643 1.24453ZM33.4286 9H2.57143L4.275 32.8359C4.40357 34.6148 6.09107 36 8.12411 36H27.8759C29.9089 36 31.5964 34.6148 31.725 32.8359L33.4286 9Z" fill="#343A49"/>
</svg>
