<svg width="32" height="38" viewBox="0 0 32 38" fill="none" xmlns="http://www.w3.org/2000/svg">
<g clip-path="url(#clip0_638_1173)">
<path d="M9.65714 1.35121L9.14286 2.44286H2.28571C1.02143 2.44286 0 3.53451 0 4.88571C0 6.23692 1.02143 7.32857 2.28571 7.32857H29.7143C30.9786 7.32857 32 6.23692 32 4.88571C32 3.53451 30.9786 2.44286 29.7143 2.44286H22.8571L22.3429 1.35121C21.9571 0.519107 21.1643 0 20.3 0H11.7C10.8357 0 10.0429 0.519107 9.65714 1.35121ZM29.7143 9.77143H2.28571L3.8 35.6504C3.91429 37.5818 5.41429 39.0857 7.22143 39.0857H24.7786C26.5857 39.0857 28.0857 37.5818 28.2 35.6504L29.7143 9.77143Z" fill="#343A49"/>
</g>
<defs>
<clipPath id="clip0_638_1173">
<rect width="32" height="38" fill="white"/>
</clipPath>
</defs>
</svg>
