<svg width="37" height="32" viewBox="0 0 37 32" fill="none" xmlns="http://www.w3.org/2000/svg">
<path d="M26.2102 1.17188L22.7126 4.19687L32.1071 12.3219L35.6048 9.29688C37.4114 7.73438 37.4114 5.20312 35.6048 3.64062L32.7575 1.17188C30.9509 -0.390625 28.0241 -0.390625 26.2175 1.17188H26.2102ZM21.0794 5.60938L4.23426 20.1844C3.4827 20.8344 2.93348 21.6406 2.62997 22.5219L0.0717648 30.0406C-0.108899 30.5719 0.0573117 31.1406 0.505359 31.5281C0.953405 31.9156 1.61102 32.0594 2.21805 31.9094L10.9116 29.6969C11.9306 29.4344 12.8628 28.9594 13.6143 28.3094L30.4739 13.7344L21.0794 5.60938Z" fill="#343A49"/>
</svg>
