<svg width="500" height="500" viewBox="0 0 500 500" fill="none" xmlns="http://www.w3.org/2000/svg">
<g clip-path="url(#clip0_615_1584)">
<path d="M304.675 156.259L304.667 156.266H304.688H355.469C356.501 156.266 357.49 156.676 358.22 157.405C358.949 158.135 359.359 159.124 359.359 160.156V167.969C359.359 169.001 358.949 169.99 358.22 170.72C357.49 171.449 356.501 171.859 355.469 171.859H346.24H346.226L346.225 171.874L330.014 353.661C329.49 359.485 326.806 364.903 322.49 368.849C318.174 372.795 312.538 374.984 306.689 374.984H193.311C187.463 374.984 181.826 372.795 177.51 368.849C173.194 364.903 170.51 359.485 169.986 353.661L153.775 171.874L153.774 171.859H153.76H144.531C143.499 171.859 142.51 171.449 141.78 170.72C141.051 169.99 140.641 169.001 140.641 167.969V160.156C140.641 159.124 141.051 158.135 141.78 157.405C142.51 156.676 143.499 156.266 144.531 156.266H195.312V156.276L195.325 156.259L211.731 134.384C213.913 131.475 216.742 129.114 219.994 127.488C223.246 125.862 226.833 125.016 230.469 125.016H269.531C273.167 125.016 276.754 125.862 280.006 127.488C283.258 129.114 286.087 131.475 288.269 134.384L304.675 156.259ZM285.156 156.266H285.188L285.169 156.241L275.794 143.741L275.781 143.75L275.794 143.741C275.062 142.771 274.116 141.984 273.03 141.441C271.943 140.898 270.746 140.613 269.531 140.609H230.469C229.254 140.613 228.057 140.898 226.97 141.441C225.884 141.984 224.938 142.771 224.206 143.741L224.219 143.75L224.206 143.741L214.831 156.241L214.812 156.266H214.844H285.156ZM169.434 171.859H169.417L169.418 171.876L185.531 352.247C185.692 354.198 186.583 356.016 188.024 357.34C189.466 358.664 191.353 359.396 193.311 359.391H306.689C308.647 359.396 310.534 358.664 311.976 357.34C313.417 356.016 314.308 354.198 314.469 352.247L330.582 171.876L330.583 171.859H330.566H169.434Z" fill="#222326" stroke="#222326" stroke-width="0.03125"/>
</g>
<defs>
<clipPath id="clip0_615_1584">
<rect width="250" height="250" fill="white" transform="translate(125 125)"/>
</clipPath>
</defs>
</svg>
