<svg width="41" height="40" viewBox="0 0 41 40" fill="none" xmlns="http://www.w3.org/2000/svg">
<path d="M19.3335 24.6667C19.6668 25 20.0557 25.1667 20.5002 25.1667C20.9446 25.1667 21.3335 25 21.6668 24.6667L26.8335 19.5C27.1391 19.1945 27.2846 18.8056 27.2702 18.3334C27.2557 17.8612 27.0963 17.4723 26.7918 17.1667C26.4585 16.8334 26.0696 16.6667 25.6252 16.6667C25.1807 16.6667 24.7918 16.8334 24.4585 17.1667L20.5002 21.125L16.5002 17.125C16.1946 16.8195 15.8057 16.6734 15.3335 16.6867C14.8613 16.7 14.4724 16.86 14.1668 17.1667C13.8335 17.5 13.6668 17.8889 13.6668 18.3334C13.6668 18.7778 13.8335 19.1667 14.1668 19.5L19.3335 24.6667ZM20.5002 36.6667C18.1946 36.6667 16.0279 36.2289 14.0002 35.3534C11.9724 34.4778 10.2085 33.2906 8.7085 31.7917C7.2085 30.2917 6.02127 28.5278 5.14683 26.5C4.27239 24.4723 3.83461 22.3056 3.8335 20C3.8335 17.6945 4.27127 15.5278 5.14683 13.5C6.02239 11.4723 7.20961 9.70837 8.7085 8.20837C10.2085 6.70837 11.9724 5.52115 14.0002 4.64671C16.0279 3.77226 18.1946 3.33449 20.5002 3.33337C22.8057 3.33337 24.9724 3.77115 27.0002 4.64671C29.0279 5.52226 30.7918 6.70949 32.2918 8.20837C33.7918 9.70837 34.9796 11.4723 35.8552 13.5C36.7307 15.5278 37.1679 17.6945 37.1668 20C37.1668 22.3056 36.729 24.4723 35.8535 26.5C34.9779 28.5278 33.7907 30.2917 32.2918 31.7917C30.7918 33.2917 29.0279 34.4795 27.0002 35.355C24.9724 36.2306 22.8057 36.6678 20.5002 36.6667ZM20.5002 33.3334C24.1946 33.3334 27.3407 32.035 29.9385 29.4384C32.5363 26.8417 33.8346 23.6956 33.8335 20C33.8335 16.3056 32.5352 13.1595 29.9385 10.5617C27.3418 7.96393 24.1957 6.6656 20.5002 6.66671C16.8057 6.66671 13.6596 7.96504 11.0618 10.5617C8.46405 13.1584 7.16572 16.3045 7.16683 20C7.16683 23.6945 8.46516 26.8406 11.0618 29.4384C13.6585 32.0362 16.8046 33.3345 20.5002 33.3334Z" fill="white"/>
</svg>
