<svg width="32" height="32" viewBox="0 0 32 32" fill="none" xmlns="http://www.w3.org/2000/svg">
<rect width="32" height="32" rx="4" fill="white"/>
<g clip-path="url(#clip0_615_1580)">
<path d="M22.2309 8.59698L22.2419 8.58594L22.2309 8.59699L23.403 9.76917L23.4141 9.75812L23.403 9.76918C24.1782 10.544 24.1782 11.8004 23.4034 12.5752L12.3922 23.5863L8.83082 23.9798C8.80293 23.9828 8.77569 23.9844 8.74847 23.9844C8.31797 23.9844 7.97129 23.6086 8.02025 23.1686L8.41652 19.6047L19.4245 8.59668C19.8121 8.20941 20.3199 8.01562 20.8278 8.01562C21.3357 8.01562 21.8436 8.20941 22.2309 8.59698ZM11.9421 22.6618L11.9425 22.6661L11.9514 22.6573L20.2011 14.4079L20.2121 14.3969L20.2011 14.3858L17.6145 11.7993L17.6035 11.7882L17.5924 11.7993L9.34586 20.0458L9.34276 20.0427L9.34138 20.0551L9.01763 22.9667L9.01547 22.9861L9.03488 22.984L11.9421 22.6618ZM20.8859 13.7007L20.8969 13.7118L20.908 13.7007L22.7183 11.8904C23.1141 11.4943 23.1141 10.8501 22.7183 10.454L22.7072 10.465L22.7183 10.454L21.5461 9.28176L21.5461 9.28175C21.3541 9.09009 21.0992 8.98438 20.8278 8.98438C20.5565 8.98438 20.3013 9.09008 20.1096 9.28176L18.2993 11.0921L18.2882 11.1031L18.2993 11.1142L20.8859 13.7007Z" fill="#222326" stroke="#222326" stroke-width="0.03125"/>
</g>
<defs>
<clipPath id="clip0_615_1580">
<rect width="16" height="16" fill="white" transform="translate(8 8)"/>
</clipPath>
</defs>
</svg>
