<svg width="33" height="32" viewBox="0 0 33 32" fill="none" xmlns="http://www.w3.org/2000/svg">
<g clip-path="url(#clip0_656_1223)">
<path d="M32.5 5C32.5 6.125 31.6063 7.1625 30.1 8C28.2812 9.00625 25.5687 9.71875 22.4562 9.93125C22.225 9.81875 21.9937 9.7125 21.75 9.61875C19.2875 8.5875 16.0125 8 12.5 8C11.9812 8 11.475 8.0125 10.9688 8.0375L10.9 8C9.39375 7.1625 8.5 6.125 8.5 5C8.5 2.2375 13.875 0 20.5 0C27.125 0 32.5 2.2375 32.5 5ZM10.5437 10.0688C11.1812 10.025 11.8375 10 12.5 10C16.3875 10 19.8375 10.7687 22.0312 11.9625C23.5812 12.8062 24.5 13.8562 24.5 15C24.5 15.25 24.4562 15.4937 24.3687 15.7312C24.0812 16.5562 23.3062 17.3125 22.1812 17.95C22.175 17.9563 22.1625 17.9562 22.1562 17.9625C22.1375 17.975 22.1187 17.9812 22.1 17.9937C19.9125 19.2062 16.425 19.9937 12.5 19.9937C8.775 19.9937 5.44375 19.2875 3.2375 18.175C3.11875 18.1187 3.00625 18.0562 2.89375 17.9937C1.39375 17.1625 0.5 16.125 0.5 15C0.5 12.825 3.8375 10.9688 8.5 10.2875C9.15625 10.1938 9.8375 10.1188 10.5437 10.0688ZM26.5 15C26.5 13.6313 25.8375 12.5063 24.9937 11.6625C26.7625 11.3875 28.3813 10.95 29.7563 10.3813C30.775 9.95625 31.725 9.43125 32.5 8.7875V11C32.5 12.2063 31.4688 13.3187 29.7625 14.1812C28.85 14.6437 27.7375 15.0375 26.4875 15.3375C26.4937 15.225 26.5 15.1188 26.5 15.0063V15ZM24.5 21C24.5 22.125 23.6063 23.1625 22.1 24C21.9875 24.0625 21.875 24.1187 21.7563 24.1812C19.5562 25.2937 16.225 26 12.5 26C8.575 26 5.0875 25.2125 2.9 24C1.39375 23.1625 0.5 22.125 0.5 21V18.7875C1.28125 19.4312 2.225 19.9563 3.24375 20.3813C5.7125 21.4125 8.9875 22 12.5 22C16.0125 22 19.2875 21.4125 21.7563 20.3813C22.2437 20.1812 22.7125 19.95 23.1562 19.7C23.5375 19.4875 23.8938 19.25 24.2313 19C24.325 18.9312 24.4125 18.8563 24.5 18.7875V19V19.3563V21ZM26.5 21V19V17.3813C27.6875 17.1187 28.7812 16.7875 29.7563 16.3813C30.775 15.9563 31.725 15.4313 32.5 14.7875V17C32.5 17.6562 32.1875 18.3125 31.5688 18.9312C30.55 19.95 28.7562 20.7875 26.4875 21.3312C26.4937 21.225 26.5 21.1125 26.5 21ZM12.5 28C16.0125 28 19.2875 27.4125 21.7563 26.3813C22.775 25.9563 23.725 25.4312 24.5 24.7875V27C24.5 29.7625 19.125 32 12.5 32C5.875 32 0.5 29.7625 0.5 27V24.7875C1.28125 25.4312 2.225 25.9563 3.24375 26.3813C5.7125 27.4125 8.9875 28 12.5 28Z" fill="#343A49"/>
</g>
<defs>
<clipPath id="clip0_656_1223">
<rect width="32" height="32" fill="white" transform="translate(0.5)"/>
</clipPath>
</defs>
</svg>
