<svg width="48" height="56" viewBox="0 0 48 56" fill="none" xmlns="http://www.w3.org/2000/svg">
<path d="M33 35C41.2875 35 48 27.1688 48 17.5C48 15.8266 47.7937 14.2078 47.4187 12.6656C47.1281 11.4844 45.8812 11.2219 45.1406 12.0859L37.9406 20.4859C37.6594 20.8141 37.275 21 36.8812 21H31.5C30.675 21 30 20.2125 30 19.25V12.9719C30 12.5125 30.1594 12.0641 30.4406 11.7359L37.6406 3.33594C38.3812 2.47187 38.1469 1.01719 37.1438 0.678125C35.8219 0.240625 34.4344 0 33 0C24.7125 0 18 7.83125 18 17.5C18 19.5891 18.3188 21.6016 18.8906 23.4609L1.86562 43.3234C0.675 44.7125 0 46.6047 0 48.5734C0 52.675 2.85 56 6.36563 56C8.05313 56 9.675 55.2125 10.8656 53.8234L27.8906 33.9609C29.4844 34.6391 31.2094 35 33 35ZM7.5 44.625C8.09674 44.625 8.66903 44.9016 9.09099 45.3938C9.51295 45.8861 9.75 46.5538 9.75 47.25C9.75 47.9462 9.51295 48.6139 9.09099 49.1062C8.66903 49.5984 8.09674 49.875 7.5 49.875C6.90326 49.875 6.33097 49.5984 5.90901 49.1062C5.48705 48.6139 5.25 47.9462 5.25 47.25C5.25 46.5538 5.48705 45.8861 5.90901 45.3938C6.33097 44.9016 6.90326 44.625 7.5 44.625Z" fill="white"/>
</svg>
