<svg width="24" height="28" viewBox="0 0 24 28" fill="none" xmlns="http://www.w3.org/2000/svg">
<path d="M11.999 0C11.0508 0 10.2847 0.766071 10.2847 1.71429V2.74286C6.37397 3.53571 3.42755 6.99643 3.42755 11.1429V12.15C3.42755 14.6679 2.50076 17.1 0.829332 18.9857L0.432903 19.4304C-0.0170969 19.9339 -0.12424 20.6571 0.148975 21.2732C0.422189 21.8893 1.03826 22.2857 1.71326 22.2857H22.2847C22.9597 22.2857 23.5704 21.8893 23.849 21.2732C24.1275 20.6571 24.015 19.9339 23.565 19.4304L23.1686 18.9857C21.4972 17.1 20.5704 14.6732 20.5704 12.15V11.1429C20.5704 6.99643 17.624 3.53571 13.7133 2.74286V1.71429C13.7133 0.766071 12.9472 0 11.999 0ZM14.4258 26.4268C15.0686 25.7839 15.4275 24.9107 15.4275 24H11.999H8.5704C8.5704 24.9107 8.92933 25.7839 9.57219 26.4268C10.215 27.0696 11.0883 27.4286 11.999 27.4286C12.9097 27.4286 13.7829 27.0696 14.4258 26.4268Z" fill="#343A49"/>
</svg>
