<svg width="32" height="33" viewBox="0 0 32 33" fill="none" xmlns="http://www.w3.org/2000/svg">
<g clip-path="url(#clip0_460_3144)">
<path d="M16 32.9286C20.2435 32.9286 24.3131 31.2429 27.3137 28.2423C30.3143 25.2417 32 21.1721 32 16.9286C32 12.6851 30.3143 8.61546 27.3137 5.61488C24.3131 2.6143 20.2435 0.928589 16 0.928589C11.7565 0.928589 7.68687 2.6143 4.68629 5.61488C1.68571 8.61546 0 12.6851 0 16.9286C0 21.1721 1.68571 25.2417 4.68629 28.2423C7.68687 31.2429 11.7565 32.9286 16 32.9286ZM16 8.92859C16.8313 8.92859 17.5 9.59734 17.5 10.4286V17.4286C17.5 18.2598 16.8313 18.9286 16 18.9286C15.1687 18.9286 14.5 18.2598 14.5 17.4286V10.4286C14.5 9.59734 15.1687 8.92859 16 8.92859ZM14 22.9286C14 22.3982 14.2107 21.8894 14.5858 21.5144C14.9609 21.1393 15.4696 20.9286 16 20.9286C16.5304 20.9286 17.0391 21.1393 17.4142 21.5144C17.7893 21.8894 18 22.3982 18 22.9286C18 23.459 17.7893 23.9677 17.4142 24.3428C17.0391 24.7179 16.5304 24.9286 16 24.9286C15.4696 24.9286 14.9609 24.7179 14.5858 24.3428C14.2107 23.9677 14 23.459 14 22.9286Z" fill="#343A49"/>
</g>
<defs>
<clipPath id="clip0_460_3144">
<rect width="32" height="32" fill="white" transform="translate(0 0.928589)"/>
</clipPath>
</defs>
</svg>
