<svg width="56" height="56" viewBox="0 0 56 56" fill="none" xmlns="http://www.w3.org/2000/svg">
<g clip-path="url(#clip0_615_1213)">
<path d="M28 56C35.4261 56 42.548 53.05 47.799 47.799C53.05 42.548 56 35.4261 56 28C56 20.5739 53.05 13.452 47.799 8.20101C42.548 2.94999 35.4261 0 28 0C20.5739 0 13.452 2.94999 8.20101 8.20101C2.94999 13.452 0 20.5739 0 28C0 35.4261 2.94999 42.548 8.20101 47.799C13.452 53.05 20.5739 56 28 56ZM28 14C29.4547 14 30.625 15.1703 30.625 16.625V28.875C30.625 30.3297 29.4547 31.5 28 31.5C26.5453 31.5 25.375 30.3297 25.375 28.875V16.625C25.375 15.1703 26.5453 14 28 14ZM24.5 38.5C24.5 37.5717 24.8687 36.6815 25.5251 36.0251C26.1815 35.3688 27.0717 35 28 35C28.9283 35 29.8185 35.3688 30.4749 36.0251C31.1313 36.6815 31.5 37.5717 31.5 38.5C31.5 39.4283 31.1313 40.3185 30.4749 40.9749C29.8185 41.6312 28.9283 42 28 42C27.0717 42 26.1815 41.6312 25.5251 40.9749C24.8687 40.3185 24.5 39.4283 24.5 38.5Z" fill="white"/>
</g>
<defs>
<clipPath id="clip0_615_1213">
<rect width="56" height="56" fill="white"/>
</clipPath>
</defs>
</svg>
