<svg width="208" height="289" viewBox="0 0 208 289" fill="none" xmlns="http://www.w3.org/2000/svg">
<path d="M98.8675 121.398C98.4643 121.398 98.065 121.318 97.6931 121.162C97.3212 121.006 96.984 120.778 96.7013 120.49C96.4186 120.203 96.1959 119.862 96.0463 119.488C95.8967 119.114 95.8232 118.714 95.83 118.311C95.8244 115.686 96.3929 113.092 97.4956 110.71C98.5984 108.328 100.209 106.216 102.214 104.521C103.711 103.484 104.935 102.1 105.78 100.487C106.625 98.8743 107.066 97.0807 107.066 95.2601C107.066 93.4394 106.625 91.6458 105.78 90.0329C104.935 88.42 103.711 87.0357 102.214 85.9987C100.158 84.3808 98.4956 82.3178 97.3528 79.965C96.2099 77.6121 95.6162 75.0307 95.6162 72.4153C95.6162 69.7999 96.2099 67.2186 97.3528 64.8657C98.4956 62.5129 100.158 60.4498 102.214 58.8319C103.711 57.7949 104.935 56.4106 105.78 54.7977C106.625 53.1848 107.066 51.3913 107.066 49.5706C107.066 47.7499 106.625 45.9564 105.78 44.3434C104.935 42.7305 103.711 41.3463 102.214 40.3092C100.197 38.6566 98.5638 36.5861 97.4261 34.2409C96.2884 31.8957 95.6736 29.3317 95.6241 26.7258C95.6597 24.1175 96.2684 21.5488 97.4071 19.2015C98.5458 16.8543 100.187 14.7858 102.214 13.1425C103.666 12.0507 104.855 10.6472 105.692 9.0355C106.53 7.42378 106.995 5.64482 107.053 3.82964C107.053 3.02453 107.373 2.25241 107.943 1.68311C108.512 1.11381 109.285 0.793945 110.091 0.793945C110.896 0.793945 111.669 1.11381 112.238 1.68311C112.808 2.25241 113.128 3.02453 113.128 3.82964C113.092 6.438 112.484 9.00668 111.345 11.3539C110.206 13.7012 108.565 15.7697 106.538 17.413C105.041 18.4558 103.818 19.8449 102.973 21.4619C102.129 23.079 101.688 24.876 101.688 26.7001C101.688 28.5242 102.129 30.3213 102.973 31.9383C103.818 33.5553 105.041 34.9443 106.538 35.9872C108.565 37.6305 110.206 39.699 111.345 42.0463C112.484 44.3935 113.092 46.9623 113.128 49.5706C113.079 52.1765 112.464 54.7405 111.326 57.0857C110.188 59.4308 108.555 61.5013 106.538 63.154C105.041 64.191 103.817 65.5753 102.972 67.1882C102.127 68.8011 101.686 70.5946 101.686 72.4153C101.686 74.236 102.127 76.0296 102.972 77.6425C103.817 79.2554 105.041 80.6396 106.538 81.6767C108.594 83.2946 110.257 85.3576 111.399 87.7105C112.542 90.0633 113.136 92.6446 113.136 95.2601C113.136 97.8755 112.542 100.457 111.399 102.81C110.257 105.163 108.594 107.226 106.538 108.843C105.079 109.917 103.885 111.309 103.046 112.914C102.207 114.519 101.746 116.295 101.699 118.105C101.734 118.508 101.688 118.914 101.564 119.299C101.44 119.684 101.24 120.04 100.977 120.347C100.713 120.654 100.39 120.905 100.028 121.085C99.6661 121.266 99.2714 121.372 98.8675 121.398Z" fill="white"/>
<path d="M74.0014 121.398C73.1911 121.385 72.4186 121.054 71.8504 120.476C71.2822 119.899 70.9638 119.121 70.9639 118.311C71.0134 115.705 71.6282 113.141 72.7659 110.796C73.9036 108.451 75.5372 106.38 77.5537 104.728C79.051 103.691 80.2745 102.306 81.1196 100.693C81.9647 99.0806 82.4061 97.2871 82.4061 95.4664C82.4061 93.6457 81.9647 91.8521 81.1196 90.2392C80.2745 88.6263 79.051 87.2421 77.5537 86.205C75.4975 84.5871 73.8354 82.5241 72.6926 80.1712C71.5498 77.8184 70.9561 75.237 70.9561 72.6216C70.9561 70.0062 71.5498 67.4248 72.6926 65.072C73.8354 62.7191 75.4975 60.6561 77.5537 59.0383C79.0129 57.965 80.2075 56.5726 81.0462 54.9675C81.8849 53.3624 82.3455 51.587 82.3929 49.7769C82.3929 48.9718 82.7129 48.1996 83.2825 47.6303C83.8522 47.061 84.6248 46.7412 85.4304 46.7412C86.236 46.7412 87.0085 47.061 87.5782 47.6303C88.1478 48.1996 88.4678 48.9718 88.4678 49.7769C88.4184 52.3827 87.8036 54.9468 86.6658 57.292C85.5281 59.6372 83.8946 61.7076 81.8781 63.3602C80.3808 64.3973 79.1572 65.7815 78.3121 67.3945C77.467 69.0074 77.0256 70.801 77.0256 72.6216C77.0256 74.4423 77.467 76.2359 78.3121 77.8488C79.1572 79.4617 80.3808 80.846 81.8781 81.883C83.9343 83.5009 85.5963 85.5639 86.7391 87.9167C87.8819 90.2696 88.4757 92.851 88.4757 95.4664C88.4757 98.0818 87.8819 100.663 86.7391 103.016C85.5963 105.369 83.9343 107.432 81.8781 109.05C80.4272 110.131 79.2387 111.525 78.4009 113.128C77.5631 114.732 77.0975 116.503 77.0388 118.311C77.0457 118.714 76.9721 119.114 76.8226 119.489C76.673 119.863 76.4503 120.204 76.1676 120.491C75.8848 120.778 75.5477 121.007 75.1758 121.162C74.8039 121.318 74.4047 121.398 74.0014 121.398Z" fill="white"/>
<path d="M123.733 121.398C122.914 121.398 122.128 121.072 121.549 120.494C120.969 119.915 120.644 119.129 120.644 118.311C120.703 115.701 121.327 113.136 122.474 110.791C123.62 108.446 125.262 106.377 127.285 104.727C128.762 103.676 129.966 102.286 130.797 100.675C131.628 99.0644 132.062 97.2783 132.062 95.4659C132.062 93.6534 131.628 91.8672 130.797 90.2562C129.966 88.6452 128.762 87.256 127.285 86.2045C125.22 84.5924 123.55 82.5313 122.401 80.1777C121.253 77.824 120.656 75.2398 120.656 72.6211C120.656 70.0024 121.253 67.4181 122.401 65.0645C123.55 62.7108 125.22 60.6498 127.285 59.0377C128.729 57.9538 129.91 56.558 130.739 54.9544C131.568 53.3507 132.024 51.5807 132.073 49.7763C132.17 49.0327 132.534 48.3496 133.098 47.8547C133.661 47.3598 134.386 47.0869 135.136 47.0869C135.887 47.0869 136.611 47.3598 137.175 47.8547C137.739 48.3496 138.103 49.0327 138.199 49.7763C138.158 52.3888 137.541 54.96 136.393 57.3075C135.245 59.6551 133.595 61.7214 131.558 63.3597C130.081 64.4113 128.877 65.8004 128.046 67.4114C127.215 69.0225 126.782 70.8087 126.782 72.6211C126.782 74.4335 127.215 76.2197 128.046 77.8307C128.877 79.4417 130.081 80.8309 131.558 81.8825C133.623 83.4946 135.293 85.5556 136.442 87.9092C137.591 90.2628 138.188 92.8472 138.188 95.4659C138.188 98.0846 137.591 100.669 136.442 103.022C135.293 105.376 133.623 107.437 131.558 109.049C130.114 110.133 128.933 111.529 128.104 113.133C127.275 114.736 126.819 116.506 126.77 118.311C126.771 119.12 126.452 119.898 125.884 120.476C125.316 121.053 124.543 121.384 123.733 121.398Z" fill="white"/>
<path d="M138.251 148.771C145.322 155.472 150.245 164.117 152.399 173.615C154.554 183.113 153.841 193.035 150.353 202.128C146.865 211.221 140.757 219.076 132.802 224.7C124.846 230.324 115.401 233.464 105.661 233.723C95.9201 233.982 86.3213 231.348 78.0782 226.155C69.8351 220.962 63.3178 213.443 59.3505 204.548C55.3832 195.653 54.1441 185.783 55.7898 176.184C57.4355 166.586 61.8921 157.69 68.5962 150.623L29.2125 113.269C15.1157 128.127 5.74426 146.83 2.28348 167.011C-1.1773 187.193 1.42798 207.947 9.76987 226.649C18.1118 245.35 31.8155 261.16 49.148 272.077C66.4805 282.995 86.6633 288.53 107.144 287.983C127.624 287.436 147.482 280.831 164.206 269.004C180.931 257.177 193.77 240.659 201.101 221.539C208.431 202.418 209.924 181.555 205.39 161.587C200.855 141.619 190.498 123.443 175.627 109.358L138.251 148.771Z" fill="white"/>
</svg>
